<svg height="511pt" viewBox="-84 1 511 511.99994" width="511pt" xmlns="http://www.w3.org/2000/svg"><path d="m187.445312 14.992188v55.46875c0 8.277343-6.714843 14.992187-14.992187 14.992187-8.273437 0-14.988281-6.714844-14.988281-14.992187v-55.46875c0-8.277344 6.714844-14.992188 14.988281-14.992188 8.277344 0 14.992187 6.714844 14.992187 14.992188zm0 0" fill="#cec5c2"/><path d="m187.445312 441.546875v55.460937c0 8.285157-6.714843 14.992188-14.992187 14.992188-8.273437 0-14.988281-6.707031-14.988281-14.992188v-55.460937c0-8.273437 6.714844-14.988281 14.988281-14.988281 8.277344 0 14.992187 6.714844 14.992187 14.988281zm0 0" fill="#cec5c2"/><path d="m187.445312 14.992188v55.46875c0 8.277343-6.714843 14.992187-14.992187 14.992187v-85.453125c8.277344 0 14.992187 6.714844 14.992187 14.992188zm0 0" fill="#a0908a"/><path d="m187.445312 441.546875v55.460937c0 8.285157-6.714843 14.992188-14.992187 14.992188v-85.441406c8.277344 0 14.992187 6.714844 14.992187 14.988281zm0 0" fill="#a0908a"/><path d="m343.972656 140.582031-28.765625 265.964844c-3.039062 28.117187-26.65625 49.3125-54.929687 49.3125h-175.644532c-28.273437 0-51.890624-21.195313-54.929687-49.3125l-28.765625-265.964844c-2.316406-21.488281 4.628906-43.035156 19.070312-59.125 14.441407-16.082031 35.121094-25.308593 56.730469-25.308593h191.433594c21.609375 0 42.289063 9.226562 56.730469 25.308593 14.441406 16.089844 21.386718 37.636719 19.070312 59.125zm0 0" fill="#e27726"/><path d="m343.972656 140.582031-28.765625 265.964844c-3.039062 28.117187-26.65625 49.3125-54.929687 49.3125h-87.824219v-399.710937h95.71875c21.609375 0 42.289063 9.226562 56.730469 25.308593 14.441406 16.089844 21.386718 37.636719 19.070312 59.125zm0 0" fill="#ba501a"/><path d="m158.34375 164.570312c0 8.273438-6.71875 14.992188-14.992188 14.992188h-138.195312l-3.25-29.984375h141.445312c8.273438 0 14.992188 6.707031 14.992188 14.992187zm0 0" fill="#ffc477"/><path d="m337.175781 203.4375-3.25 29.984375h-105.730469c-8.277343 0-14.992187-6.707031-14.992187-14.992187 0-8.273438 6.714844-14.992188 14.992187-14.992188zm0 0" fill="#ff9b48"/><path d="m131.398438 267.605469c0 8.273437-6.707032 14.988281-14.992188 14.988281h-100.105469l-3.25-29.980469h103.355469c8.285156 0 14.992188 6.703125 14.992188 14.992188zm0 0" fill="#ffc477"/><path d="m327.121094 296.386719-3.238282 29.984375h-78.699218c-8.273438 0-14.992188-6.707032-14.992188-14.992188 0-8.273437 6.71875-14.992187 14.992188-14.992187zm0 0" fill="#ff9b48"/><path d="m182.359375 367.6875c0 6.777344-4.496094 12.503906-10.675781 14.355469-1.359375.417969-2.808594.636719-4.316406.636719h-140.242188l-3.25-29.984376h143.492188c1.507812 0 2.957031.222657 4.316406.640626 6.179687 1.851562 10.675781 7.578124 10.675781 14.351562zm0 0" fill="#ffc477"/><path d="m182.359375 367.6875c0 6.777344-4.496094 12.503906-10.675781 14.355469v-28.707031c6.179687 1.851562 10.675781 7.578124 10.675781 14.351562zm0 0" fill="#ff9b48"/></svg>