<?xml version="1.0" encoding="utf-8"?>
<!-- Generator: Adobe Illustrator 23.0.1, SVG Export Plug-In . SVG Version: 6.00 Build 0)  -->
<svg width="145" height="180" version="1.1" id="Layer_1" xmlns="http://www.w3.org/2000/svg" xmlns:xlink="http://www.w3.org/1999/xlink" x="0px" y="0px"
	 viewBox="0 0 145 180" style="enable-background:new 0 0 145 180;" xml:space="preserve">
<style type="text/css">
	.st0{display:none;fill:#7C7C7C;}
	.st1{fill:#FFFFFF;stroke:#020202;stroke-width:1.5;stroke-miterlimit:10;}
	.st2{fill:#FFFFFF;stroke:#000000;stroke-width:1.5;stroke-miterlimit:10;}
	.st3{fill:none;stroke:#F9F9F9;stroke-width:6;stroke-miterlimit:10;}
	.st4{fill:none;stroke:#231F20;stroke-width:4;stroke-miterlimit:10;}
	.st5{fill:none;stroke:#FFFFFF;stroke-width:6;stroke-miterlimit:10;}
	.st6{fill:#FFFFFF;stroke:#231F20;stroke-width:2;stroke-miterlimit:10;}
	.st7{fill:#F3705A;stroke:#FCFCFC;stroke-miterlimit:10;}
	.st8{fill:none;stroke:#C6C6C6;stroke-width:3;stroke-linecap:round;stroke-miterlimit:10;stroke-opacity:0.59;}
	.st9{display:none;fill:#FFFFFF;}
</style>
<rect x="0.6" y="0" class="st0" width="143.7" height="180.1"/>
<g>
	<g>
		<g transform="translate(0.000000,1280.000000) scale(0.100000,-0.100000)">
			<path class="st1" d="M198.7,11496.7c98.9-84.4,202.8-103.5,307.4-56.8c34.2,15.3,71.2,40.5,101.1,68.9
				c3.9,3.7,30.7,30.8,59.5,60.1c205.3,208.9,307.4,307.4,459,442.8l33.3,29.7l-24.3,34.9c-13.3,19.2-26,37.4-28.1,40.6l-3.8,5.7
				l-40.1-33.4c-247.1-205.5-395.7-322.6-523.4-412.8c-173.1-122.1-283.6-178-342.4-173.1l-6.6,0.6L198.7,11496.7z M588.2,11672.7
				c49,38.3,136.7,107,195.1,152.6c58.4,45.7,146.1,114.3,195.1,152.6c82.2,64.4,110.5,86.3,89.5,69.1
				c-33.8-27.5-80.6-66.2-135.5-112.2c-120.3-100.8-165.8-138.2-220-180.8c-68.5-53.9-139.9-105.5-197.9-143
				c-22-14.2-28.2-17.8-20.3-11.8C497,11601.3,539.3,11634.3,588.2,11672.7z M1080.8,12058.1c1.5,0.9,1.6,0.8,0.3-0.3
				c-0.7-0.8-1.5-1.3-1.7-1.3C1078.8,12056.6,1079.3,12057.2,1080.8,12058.1z"/>
			<path class="st1" d="M1141.8,12090.7c32.4-47,33.4-48.3,39-46.7c1.8,0.6,3.1,1.8,4.3,4c0.9,1.8,3.5,7,5.9,11.7
				c13.7,27.4,31.3,50.7,50.7,67.3c12.4,10.6,40.2,29.7,52,35.8c14.5,7.5,34.1,15.1,64.2,24.7c41.8,13.4,51.7,18.4,63.7,31.8
				c6.6,7.3,9.3,12.6,10.8,21.7c1.3,7.6,1.3,8.5-0.5,14.3c-3.4,11.3-11.4,20.1-24.5,26.7c-8.2,4.1-25.6,7.1-35.9,6
				c-24-2.4-61-18-100.4-42.4c-21.5-13.2-48.7-31.6-64.8-43.7c-24.1-18.1-72.7-52.8-83.8-59.9c-5.7-3.5-10.4-6.7-10.6-6.9
				C1111.5,12134.9,1125.1,12114.9,1141.8,12090.7z M1164.6,12149.3c2.2,3,5.2,4.1,9.1,3.5c3.2-0.5,4.2-1.2,6.2-4
				c1.8-2.5,2.3-4.1,1.9-6.2c-1.1-6.7-8-10.3-14-7.2C1163,12137.9,1161.4,12144.9,1164.6,12149.3z M1243.3,12203
				c8,7.2,19.7-1.4,15.1-11c-4.8-9.7-19.3-4.8-17.5,5.9C1241.3,12200,1242.3,12202.1,1243.3,12203z M1319.3,12245.8
				c2,2.7,6.1,4.2,9.9,3.6c1.9-0.3,3.3-1.4,5.1-3.8c2-2.8,2.3-4.1,1.8-7c-1.1-6.8-9.8-10.4-15.1-6.1c-2,1.6-4.1,6.6-3.6,9.1
				C1317.5,12242.7,1318.4,12244.6,1319.3,12245.8z"/>
		</g>
		<g transform="translate(0.000000,1280.000000) scale(0.100000,-0.100000)">
			<path class="st2" d="M1285.4,11520.1l-6.5-0.7c-58.6-6.4-170.5,46.5-346.7,164.2c-130,86.9-281.6,200.1-533.9,399.2l-41,32.4
				l-3.6-5.8c-2-3.2-14.2-21.7-27-41.3l-23.4-35.5l34.1-28.9c155-131.5,259.6-227.3,470.2-430.8c29.6-28.6,57-54.9,61.1-58.5
				c30.7-27.7,68.2-51.9,102.8-66.3c105.7-44,209.1-22.2,305.8,64.7L1285.4,11520.1z M979.1,11607.4c8-5.8,1.7-2.3-20.6,11.3
				c-58.9,35.9-131.6,85.7-201.5,137.8c-55.3,41.2-101.7,77.4-224.6,175.1c-56.1,44.6-103.9,82.1-138.4,108.7
				c-21.5,16.6,7.4-4.6,91.2-66.8c50-37,139.5-103.4,199-147.5c59.5-44.1,149-110.5,199-147.5
				C933.1,11641.4,976.3,11609.5,979.1,11607.4z M382.2,12049.4c-0.2,0-1,0.5-1.7,1.2c-1.3,1.1-1.3,1.2,0.3,0.3
				C382.4,12050.1,382.9,12049.6,382.2,12049.4z"/>
			<path class="st2" d="M348,12127.2c-0.2,0.2-5,3.2-10.8,6.6c-11.3,6.8-60.8,40.2-85.4,57.7c-16.4,11.7-44.1,29.4-65.9,42
				c-40,23.4-77.4,38.1-101.5,39.8c-10.4,0.8-27.6-2.6-35.8-6.9c-12.9-7-20.7-16-23.8-27.4c-1.7-5.9-1.7-6.8-0.1-14.4
				c1.8-9.1,4.6-14.3,11.4-21.5c12.3-13,22.3-17.8,64.5-30.1c30.4-8.8,50.2-15.9,64.8-23c11.9-5.8,40.2-24.2,52.9-34.4
				c19.8-16,37.9-38.9,52.4-65.9c2.5-4.6,5.2-9.8,6.2-11.6c1.2-2.1,2.6-3.4,4.4-3.9c5.6-1.5,6.5-0.1,37.7,47.6
				C335.1,12106.7,348.2,12127,348,12127.2z M291.8,12126c-5.9-3.2-12.9,0.2-14.2,6.8c-0.4,2,0.1,3.7,1.8,6.2
				c1.9,2.8,2.9,3.6,6.1,4.2c3.9,0.8,6.9-0.3,9.2-3.2C298,12135.8,296.6,12128.7,291.8,12126z M217.2,12186.6
				c2.1-10.7-12.3-15.9-17.3-6.3c-4.9,9.5,6.6,18.3,14.8,11.4C215.7,12190.8,216.8,12188.7,217.2,12186.6z M139.6,12228.3
				c0.5-2.5-1.4-7.6-3.4-9.2c-5.2-4.4-14-1-15.3,5.8c-0.6,2.9-0.3,4.2,1.6,7c1.6,2.4,3.1,3.6,5,3.9c3.7,0.7,7.9-0.7,10-3.4
				C138.5,12231.3,139.4,12229.4,139.6,12228.3z"/>
		</g>
		<path class="st3" d="M65.7,10c0-0.2,0-0.3,0-0.5C66,6,68.9,3.3,72.4,3.3c3.7,0,6.7,3,6.7,6.7c0,3.7-3,6.7-6.7,6.7v22.2"/>
		<path class="st4" d="M65.7,10c0-0.2,0-0.3,0-0.5C66,6,68.9,3.3,72.4,3.3c3.7,0,6.7,3,6.7,6.7c0,3.7-3,6.7-6.7,6.7v22.2"/>
		<line class="st5" x1="72.3" y1="153.7" x2="72.3" y2="167.1"/>
		<line class="st4" x1="72.4" y1="154.3" x2="72.4" y2="167.6"/>
		<rect x="52.5" y="167.6" class="st6" width="39.5" height="9.2"/>
		<path class="st7" d="M85.2,38.5H59.6c-13.1,0-21.2,15.2-20,32.1c0.1,1.2,1.1,2.2,2.3,2.2h20.3c1.9,0,3.8,1.3,4.2,3.2
			c0.3,1.4-0.2,2.8-1.1,3.7c-0.7,0.7-1.8,1.2-2.9,1.2H43.2c-1,0-1.8,0.9-1.6,1.9l5.3,28.6c0.2,1.3,1.3,2.2,2.6,2.2h31.6
			c2,0,3.8,1.3,4.2,3.2c0.3,1.4-0.2,2.8-1.1,3.7c-0.7,0.7-1.7,1.2-2.9,1.2H50.9c-1.1,0-1.9,1-1.7,2l1.1,5.7c0.3,1.4,1.5,2.4,2.9,2.4
			h18.4c1.9,0,3.8,1.3,4.2,3.2c0.3,1.4-0.2,2.8-1.1,3.7c-0.7,0.7-1.7,1.2-2.9,1.2H54.1c-1,0-1.7,0.9-1.5,1.8l0.5,2.4
			c1.1,5.8,7.1,10.1,13.6,10.1h11.4c6.5,0,12.6-4.3,13.6-10.1l7.8-41.7c0.2-1-0.6-2-1.7-2H62.3c-2.2,0-4.2-1.6-4.3-3.8
			c-0.1-1.2,0.4-2.3,1.2-3.1c0.7-0.7,1.7-1.2,2.9-1.2h37.1c1.3,0,2.4-0.9,2.7-2.2l2.7-14.2C108,57.1,99.7,38.5,85.2,38.5z
			 M98.1,59.5c-0.7,0.7-1.8,1.2-2.9,1.2H61.3c-2.2,0-4.1-1.8-4.1-4.1c0-1.1,0.5-2.1,1.2-2.9c0.7-0.7,1.8-1.2,2.9-1.2h33.9
			c2.2,0,4.1,1.8,4.1,4.1C99.3,57.8,98.8,58.8,98.1,59.5z"/>
	</g>
	<path class="st8" d="M108,41.2c-1.8-3.6-1.4-7.8,1.1-11l0.7-0.9c2.2-2.9,2.3-6.9,0.3-9.9"/>
	<path class="st8" d="M94.7,35.3c-2.4-4.9-1.8-10.6,1.5-14.9l1-1.2c3-3.9,3.2-9.3,0.4-13.4"/>
	<path class="st8" d="M38.1,40.5c1.8-3.6,1.4-7.9-1.1-11.1l-0.7-0.9c-2.2-2.9-2.3-6.9-0.3-10"/>
	<path class="st8" d="M50.4,35.3c2.4-4.9,1.8-10.6-1.5-14.9l-1-1.2c-3-3.9-3.2-9.3-0.4-13.4"/>
</g>
<path class="st9" d="M150.8,180H-2.2V0h106.8c25.5,0,46.1,20.6,46.1,46.1V180z"/>
</svg>
