<svg id="kebabSandwich" xmlns="http://www.w3.org/2000/svg" width="51.277" height="91.962" viewBox="0 0 51.277 91.962">
  <path id="Path_2" data-name="Path 2" d="M56.078,49.86c0-21.9,0-22.14,0-22.383a6.859,6.859,0,0,0-6.86-6.859H49.17a6.859,6.859,0,0,0-9.39-7.16,6.871,6.871,0,0,0-4.92-.093,6.859,6.859,0,0,0-13.406-.807,6.859,6.859,0,0,0-8.931,8.307A6.863,6.863,0,0,0,7.5,27.476c0,.244,0,.482,0,22.383Zm0,0" transform="translate(-6.149 -6.153)" fill="#a0e557"/>
  <path id="Path_3" data-name="Path 3" d="M224.174,49.764h-.048a6.842,6.842,0,0,0-3.371-6.737V79.006h10.279c0-20.189,0-21.97,0-22.316v-.067a6.86,6.86,0,0,0-6.86-6.859Zm0,0" transform="translate(-181.104 -35.299)" fill="#93cc4a"/>
  <path id="Path_4" data-name="Path 4" d="M84.832,94.36A17.266,17.266,0,1,1,67.567,77.094,17.265,17.265,0,0,1,84.832,94.36Zm0,0" transform="translate(-41.266 -63.247)" fill="#fccf3f"/>
  <path id="Path_5" data-name="Path 5" d="M58.836,84.644c0-8.161-4.367-14.777-9.754-14.777s-9.754,6.615-9.754,14.777S43.7,99.42,49.082,99.42,58.836,92.8,58.836,84.644Zm0,0" transform="translate(-32.265 -57.318)" fill="#fc4e51"/>
  <path id="Path_6" data-name="Path 6" d="M90.88,69.867c-.2,0-.4.013-.6.031V99.389c.2.018.4.031.6.031,5.387,0,9.754-6.615,9.754-14.776S96.267,69.867,90.88,69.867Zm0,0" transform="translate(-74.062 -57.318)" fill="#ea3942"/>
  <path id="Path_7" data-name="Path 7" d="M165.933,133.226c0-8.161-4.367-14.777-9.754-14.777s-9.754,6.615-9.754,14.777S150.792,148,156.179,148,165.933,141.387,165.933,133.226Zm0,0" transform="translate(-120.126 -97.175)" fill="#fc4e51"/>
  <path id="Path_8" data-name="Path 8" d="M197.8,118.449c-.215,0-.429.015-.641.036v29.482c.212.021.425.035.641.035,5.387,0,9.754-6.615,9.754-14.776s-4.367-14.777-9.754-14.777Zm0,0" transform="translate(-161.75 -97.174)" fill="#ea3942"/>
  <path id="Path_9" data-name="Path 9" d="M54.974,200.37c4.638,0,8.4-3.441,8.4-7.684v-58.9c-24.223,9.473-41.448,33.289-46.812,57.328-1.066,4.778,2.891,9.257,8.219,9.257Zm0,0" transform="translate(-13.441 -109.755)" fill="#efa335"/>
  <path id="Path_10" data-name="Path 10" d="M192.683,133.785a66.176,66.176,0,0,0-10.279,5.106v53.8c0,4.244-3.759,7.684-8.4,7.684h10.279c4.638,0,8.4-3.44,8.4-7.684Zm0,0" transform="translate(-142.753 -109.756)" fill="#fd8f31"/>
  <path id="Path_11" data-name="Path 11" d="M47.685,190.33c4.638,0,8.4-3.441,8.4-7.684v-14.9c0-18.062-14-35.27-31.249-38.576a50.15,50.15,0,0,1-8.118-2.237c-2.451-.915-5.56-3.543-9.216-5.387v61.1c0,4.243,3.759,7.684,8.4,7.684Zm0,0" transform="translate(-6.153 -99.716)" fill="#fccf3f"/>
  <path id="Path_12" data-name="Path 12" d="M182.4,274.228c0,4.243-3.759,7.684-8.4,7.684h10.279c4.638,0,8.4-3.441,8.4-7.684v-14.9A40.13,40.13,0,0,0,182.4,233.18Zm0,0" transform="translate(-142.754 -191.298)" fill="#efa335"/>
  <path id="Path_13" data-name="Path 13" d="M51.275,21.324a8.219,8.219,0,0,0-6.871-8.1A8.207,8.207,0,0,0,33.631,5.871a8.159,8.159,0,0,0-2.578-.415,8.265,8.265,0,0,0-1.358.112,8.206,8.206,0,0,0-15.231-.779,8.2,8.2,0,0,0-9.632,9.055A8.233,8.233,0,0,0,0,21.324a1.339,1.339,0,0,0,.026.261A1.312,1.312,0,0,0,0,21.832v7.891a1.347,1.347,0,1,0,2.693,0V24.115c.93.554,1.825,1.137,2.7,1.708,1.233.8,2.348,1.528,3.4,2.075l.033.017c.134.069.267.135.4.2l.021.011q.192.091.38.171l.084.036q.188.08.375.151c.539.2,1.092.393,1.652.577q.507.167,1.025.326l.3.094c.141.042.285.081.427.123.2.058.4.118.608.174l.143.038q2.023.551,4.178.967.428.082.855.177l.215.05q.324.074.648.154l.234.06q.322.083.643.173l.209.059q.349.1.7.21l.147.046q1.29.41,2.563.933l.179.075q.314.131.627.269A39,39,0,0,1,40.733,45.371l.022.03q.37.5.725,1.008c.092.131.184.262.274.4s.168.249.251.374c.166.25.331.5.492.754.015.025.032.05.048.075A38.514,38.514,0,0,1,48.5,65.718v0c.024.343.041.685.053,1.028,0,.079.006.156.009.235.011.349.018.7.018,1.048v3.737a1.347,1.347,0,1,0,2.693,0V21.324Zm-26.21,8.584a35.515,35.515,0,0,0-4.584-1.439l-.083-.019c-.227-.054-.455-.107-.684-.156-.181-.039-.362-.075-.543-.111l-.238-.048a51.345,51.345,0,0,1-5.72-1.432c-.107-.033-.215-.065-.321-.1l-.011,0q-.944-.305-1.847-.642l-.006,0c-.082-.03-.166-.065-.25-.1l-.082-.036c-.062-.027-.125-.055-.189-.084l-.09-.042c-.067-.032-.133-.065-.2-.1l-.077-.039c-.092-.046-.184-.095-.278-.145L9.8,25.376c-.074-.04-.147-.08-.222-.122l-.12-.068-.171-.1-.128-.075-.178-.107-.113-.067-.286-.175C9.372,18.47,12.825,13.9,16.817,13.9A5.993,5.993,0,0,1,20.7,15.443a1.469,1.469,0,0,0,.111.1,10.257,10.257,0,0,1,1.783,2.079,17.786,17.786,0,0,1,2.634,9.706,20.842,20.842,0,0,1-.159,2.582Zm-.227-13.772q-.279-.422-.575-.81a16.149,16.149,0,0,1,2.036-.131,15.822,15.822,0,0,1,9.067,2.832,16.005,16.005,0,0,1,2.455,2.1,7.976,7.976,0,0,0-1.768-.2,9.262,9.262,0,0,0-6.963,3.529,14.4,14.4,0,0,0-1.269,1.734,19.715,19.715,0,0,0-2.982-9.056Zm7.642,16.29c-.274.21-.547.422-.819.636-.046.036-.093.071-.138.107Q29.9,32.146,28.2,31.3c1.24-5.157,4.379-8.675,7.852-8.675,2.145,0,4.2,1.336,5.763,3.711l-.127.071q-.555.3-1.106.619l-.233.134q-.533.307-1.062.625l-.232.14q-.539.327-1.073.664l-.2.123q-.571.363-1.139.739l-.116.076q-1.883,1.251-3.707,2.636c-.115.087-.229.176-.344.265Zm16.1,21.538a42.89,42.89,0,0,0-4.408-8.417l-.024-.036c-.2-.3-.413-.6-.626-.9-.011-.015-.02-.03-.032-.045q-.3-.418-.606-.83c-.1-.131-.2-.259-.3-.388s-.2-.267-.308-.4q-.184-.236-.372-.469c-.031-.038-.06-.076-.091-.113-.051-.064-.1-.125-.155-.188-.135-.165-.271-.33-.408-.493-.07-.083-.141-.163-.211-.246q-.34-.4-.688-.783c-.133-.148-.266-.3-.4-.441-.09-.1-.18-.194-.272-.29q-.265-.282-.534-.558l-.159-.163a42.167,42.167,0,0,0-5.132-4.441l.091-.069q.341-.263.683-.521c.133-.1.267-.2.4-.3l.38-.281q.233-.17.467-.339l.3-.216q.26-.186.523-.37l.2-.138q1.364-.945,2.759-1.817l.107-.067q.335-.208.671-.412l.1-.063q1.459-.88,2.945-1.678l.058-.032q.348-.186.7-.368,2.139-1.111,4.332-2.053Zm0-30.843q-2.207.9-4.364,1.967-.321-.506-.667-.967A18.628,18.628,0,0,0,21.97,13.008,8.476,8.476,0,0,0,16.817,11.2c-2.813,0-5.486,1.5-7.527,4.233a18.444,18.444,0,0,0-3.183,7.638c-1.055-.681-2.2-1.4-3.4-2.049a5.524,5.524,0,0,1,4.029-5.012,1.347,1.347,0,0,0,.938-1.661,5.515,5.515,0,0,1,7.177-6.677,1.346,1.346,0,0,0,1.756-.914,5.512,5.512,0,0,1,10.773.648,1.347,1.347,0,0,0,1.793,1.073,5.523,5.523,0,0,1,3.954.074,1.346,1.346,0,0,0,1.013,0,5.506,5.506,0,0,1,7.545,5.755,1.347,1.347,0,0,0,1.338,1.5h.063a5.519,5.519,0,0,1,5.5,5.513Zm0,0" transform="translate(0.001 0)"/>
  <path id="Path_14" data-name="Path 14" d="M49.929,234.894a1.347,1.347,0,0,0-1.347,1.347v4.893c0,3.494-3.162,6.337-7.05,6.337H9.743c-3.887,0-7.049-2.843-7.049-6.337V194.187a1.347,1.347,0,0,0-2.694,0v46.947c0,4.979,4.371,9.031,9.744,9.031H41.532c5.373,0,9.744-4.052,9.744-9.031v-4.893a1.348,1.348,0,0,0-1.347-1.347Zm0,0" transform="translate(0 -158.204)"/>
</svg>
