<svg xmlns="http://www.w3.org/2000/svg" width="57.928" height="98.844" viewBox="0 0 57.928 98.844">
  <g id="location" transform="translate(-54.643)">
    <path id="Path_53" data-name="Path 53" d="M83.607,0A29,29,0,0,0,54.643,28.964a28.7,28.7,0,0,0,2.8,12.444c.037.083.077.165.119.247L79.449,84.028a4.68,4.68,0,0,0,8.316,0l21.878-42.361c.038-.073.073-.147.107-.221a28.7,28.7,0,0,0,2.821-12.482A29,29,0,0,0,83.607,0Zm0,44.125A15.16,15.16,0,1,1,98.768,28.964,15.178,15.178,0,0,1,83.607,44.125Z" fill="#f3705a"/>
    <path id="Path_54" data-name="Path 54" d="M119.83,249.018H97.516a2.808,2.808,0,1,0,0,5.616H119.83a2.808,2.808,0,1,0,0-5.616Z" transform="translate(-25.065 -155.79)" fill="#f3705a"/>
  </g>
</svg>
