<svg xmlns="http://www.w3.org/2000/svg" xmlns:xlink="http://www.w3.org/1999/xlink" width="270.063" height="270.063" viewBox="0 0 270.063 270.063">
  <defs>
    <filter id="Path_1" x="0" y="0" width="270.063" height="270.063" filterUnits="userSpaceOnUse">
      <feOffset input="SourceAlpha"/>
      <feGaussianBlur stdDeviation="5" result="blur"/>
      <feFlood flood-color="#fff"/>
      <feComposite operator="in" in2="blur"/>
      <feComposite in="SourceGraphic"/>
    </filter>
  </defs>
  <g id="logo" transform="translate(36.001 24.844)">
    <g transform="matrix(1, 0, 0, 1, -36, -24.84)" filter="url(#Path_1)">
      <path id="Path_1-2" data-name="Path 1" d="M0,0,151.441.431a16.943,16.943,0,0,1,16.875,16.875l.431,151.441-151.441-.431A16.943,16.943,0,0,1,.431,151.441Z" transform="translate(135.03 15.71) rotate(45)" stroke="#fff" stroke-width="1"/>
    </g>
    <path id="Path_5" data-name="Path 5" d="M75.709,80.5c-3.812-4.616-7.624-9.417-10.051-15.141a36.416,36.416,0,0,1-1.906-19.756,43.92,43.92,0,0,1,7.97-18.279,18.343,18.343,0,0,0,4.159,12.925c-1.733-8.859,1.039-18.464,6.585-25.481S95.636,3.139,103.607,0c-3.986,4.431-4.505,11.448-2.946,17.356s4.852,11.078,7.8,16.433,5.718,10.893,5.892,16.987a61.231,61.231,0,0,0,4.332-9.787,20.531,20.531,0,0,0,.693-10.709,28.314,28.314,0,0,1,5.718,13.294,59.5,59.5,0,0,1,.174,15.693c-.693,5.724-2.08,11.633-5.025,16.433a29.182,29.182,0,0,1-15.076,12C94.423,89.735,83.853,88.073,75.709,80.5Z" transform="translate(4.823 11.971)" fill="#f3705a"/>
    <path id="Path_6" data-name="Path 6" d="M163.6,256.815c15.681,4.883,31.172-9.917,22.568-21.361,0-.153-.191-.153-.191-.305.765,6.255-1.148,10.833-4.782,13.426,1.913-3.662.574-7.931-1.722-11.6-2.294-3.509-5.546-6.714-8.032-10.07-2.486-3.509-4.4-7.476-3.251-11.443a20.351,20.351,0,0,0-9.18,11.291,16.725,16.725,0,0,0,1.913,13.426c-2.868-1.678-4.972-4.424-5.164-7.323-3.06,2.9-4.972,6.714-4.782,10.528C150.973,249.339,156.9,254.678,163.6,256.815Z" transform="translate(-70.483 -157.307)" fill="#ffd15c"/>
    <path id="Path_11" data-name="Path 11" d="M258.738,114.8a4.228,4.228,0,0,0-6.005,0l-24.24,24.377a4.533,4.533,0,0,1-6.435,0l-.6-.6a4.6,4.6,0,0,1,0-6.472l24.167-24.305a4.287,4.287,0,0,0,0-6.039,4.229,4.229,0,0,0-6,0l-24.167,24.305a4.533,4.533,0,0,1-6.436,0h0a4.6,4.6,0,0,1,0-6.472l24.239-24.379a4.288,4.288,0,0,0,0-6.039,4.229,4.229,0,0,0-6,0l-25.9,26.043a21.291,21.291,0,0,0-6.51,14.157l-.128,11.127a4.282,4.282,0,0,1-1.371,3.093l-80.064,74.1a12.186,12.186,0,0,0,0,17.164,12.02,12.02,0,0,0,17.067,0l73.549-80.38a4.237,4.237,0,0,1,3.158-1.379l11.351.089h.257a20.375,20.375,0,0,0,14.178-6.308l25.893-26.042A4.288,4.288,0,0,0,258.738,114.8Z" transform="translate(-77.205 -8.892)" fill="#fff" stroke="#000" stroke-width="2"/>
    <path id="Path_13" data-name="Path 13" d="M120.463,111.125,238.4,229.737a12.186,12.186,0,0,1,0,17.164h0a12.02,12.02,0,0,1-17.067,0L192.7,218.1a9.754,9.754,0,0,1-1.955-10.907,4.863,4.863,0,0,0-.742-5.538l-4.827-4.855a4.808,4.808,0,0,0-6.826,0h0a9.616,9.616,0,0,1-13.654,0L132.109,164.03C107.916,139.7,110.2,121.177,113.54,112.5a4.215,4.215,0,0,1,6.924-1.374Z" transform="translate(-78.136 -20.579)" fill="#fff" stroke="#000" stroke-width="2"/>
  </g>
</svg>
