<svg xmlns="http://www.w3.org/2000/svg" width="112.679" height="114.546" viewBox="0 0 112.679 114.546">
  <g id="plate" transform="translate(-158.49 -176.954)">
    <path id="Path_15" data-name="Path 15" d="M47.593,266.777c-.116,0-.223.026-.337.034A5.651,5.651,0,0,0,41.921,263c0-3.364-5.157-4.727-4.238-7.8A5.645,5.645,0,0,0,26.8,257.324c0,.123.028.238.036.359a5.648,5.648,0,0,0-5.77,9.461,5.657,5.657,0,0,0-3.719,5.3c0,3.133,2.539,9.391,5.672,9.391a5.642,5.642,0,0,0,4.148-1.828,5.651,5.651,0,0,0,10.031,1.174,5.673,5.673,0,0,0,4.727,2.545c3.133,0,5.672-6.258,5.672-9.39s3.133-7.562,0-7.562Zm0,0" transform="translate(146.434 -18.37)" fill="#71c285" stroke="#000" stroke-width="3"/>
    <path id="Path_16" data-name="Path 16" d="M426.255,51.8a5.673,5.673,0,0,0-6.744-4.538,3.514,3.514,0,0,1-3.665-1.475,5.672,5.672,0,1,0-7.515,8.13,3.862,3.862,0,0,1,1.627,4.556L404.9,73.617c.214-.011,2.317,3.77,2.534,3.77,2.4,0,2.554-3.025,4.314-1.647l4.878-14.584a4.069,4.069,0,0,1,4.01-2.676h.032a5.672,5.672,0,0,0,5.584-6.675Zm0,0" transform="translate(-156.69 144.551)" fill="#fdd7ad" stroke="#000" stroke-width="3"/>
    <path id="Path_17" data-name="Path 17" d="M312.829,182.238c-13.234,0-26.469,13.234-26.469,35.921h41.594c0-18.906-3.782-35.921-15.125-35.921Zm0,0" transform="translate(-63.973 35.919)" fill="#cb8252" stroke="#000" stroke-width="3"/>
    <path id="Path_18" data-name="Path 18" d="M141.938,147.523c-18.953,0-35.381,13.941-37.563,31.869-.031.248-.057.5-.082.757-.107,1.079-.168,2.179-.168,3.3a5.653,5.653,0,0,1,5.335,3.815c.113,0,.221-.034.336-.034a5.673,5.673,0,0,1,5.349,3.781l72.166,9.453c0-19.683-33.52-41.7-22.239-44.688a35.8,35.8,0,0,0-23.135-8.248Zm0,0" transform="translate(78.559 63.071)" fill="#cc6f56" stroke="#000" stroke-width="3"/>
    <path id="Path_19" data-name="Path 19" d="M105.838,347.117H33.7a5.591,5.591,0,0,1,.323,1.891,5.672,5.672,0,0,1-10.4,3.129A5.653,5.653,0,0,1,13.6,350.961a5.657,5.657,0,0,1-9.82-3.844A3.805,3.805,0,0,0,.043,351.5c1.928,12.148,11.782,17.044,18.357,18.976a32.316,32.316,0,0,1,10.161,5.214c4.381,3.269,12.59,7.347,26.263,7.347s21.882-4.078,26.263-7.344a32.348,32.348,0,0,1,10.162-5.214c6.573-1.932,16.427-6.829,18.356-18.975a3.809,3.809,0,0,0-3.767-4.389Zm0,0" transform="translate(160 -93.039)" fill="#2c3e50" stroke="#000" stroke-width="3"/>
    <g id="Group_1" data-name="Group 1" transform="translate(201.59 178.454)">
      <path id="Path_20" data-name="Path 20" d="M244.862,15.125a1.89,1.89,0,0,1-1.89-1.89,4.293,4.293,0,0,1,1.5-3.23c.391-.391.391-.41.391-.551s0-.163-.391-.554a4.29,4.29,0,0,1-1.5-3.227,4.278,4.278,0,0,1,1.5-3.225c.391-.4.391-.414.391-.556a1.891,1.891,0,1,1,3.781,0,4.288,4.288,0,0,1-1.5,3.227c-.391.389-.391.408-.391.554s0,.163.391.556a4.224,4.224,0,0,1,0,6.456c-.391.388-.391.407-.391.551a1.89,1.89,0,0,1-1.891,1.89Zm0,0" transform="translate(-231.628 0)" fill="#cbb292" stroke="#000" stroke-width="3"/>
      <path id="Path_21" data-name="Path 21" d="M192.793,58.516a1.89,1.89,0,0,1-1.891-1.89,4.291,4.291,0,0,1,1.5-3.23c.391-.389.391-.408.391-.551s0-.163-.391-.554a4.225,4.225,0,0,1,0-6.457c.391-.39.391-.408.391-.552a1.891,1.891,0,0,1,3.781,0,4.292,4.292,0,0,1-1.5,3.228c-.391.391-.391.41-.391.553s0,.163.391.554a4.227,4.227,0,0,1,0,6.458c-.391.39-.391.408-.391.551A1.89,1.89,0,0,1,192.793,58.516Zm0,0" transform="translate(-190.902 -33.938)" fill="#cbb292" stroke="#000" stroke-width="3"/>
      <path id="Path_22" data-name="Path 22" d="M296.929,58.516a1.89,1.89,0,0,1-1.89-1.89,4.291,4.291,0,0,1,1.5-3.23c.391-.389.391-.408.391-.551s0-.163-.391-.554a4.225,4.225,0,0,1,0-6.457c.391-.39.391-.408.391-.552a1.891,1.891,0,0,1,3.782,0,4.3,4.3,0,0,1-1.5,3.228c-.391.391-.391.41-.391.553s0,.163.391.554a4.228,4.228,0,0,1,0,6.458c-.391.39-.391.408-.391.551A1.89,1.89,0,0,1,296.929,58.516Zm0,0" transform="translate(-272.352 -33.938)" fill="#cbb292" stroke="#000" stroke-width="3"/>
    </g>
    <path id="Path_23" data-name="Path 23" d="M164.679,260.036a1.888,1.888,0,0,1-1.574-.842c-7-10.486-13.954-12.434-14.022-12.453a1.891,1.891,0,0,1,.928-3.665c.339.085,8.362,2.2,16.241,14.019a1.891,1.891,0,0,1-1.572,2.94Zm0,0" transform="translate(44.473 -11.629)" fill="#804537" stroke="#000" stroke-width="3"/>
    <path id="Path_24" data-name="Path 24" d="M212.8,212.824a1.89,1.89,0,0,1-1.575-.842,31.926,31.926,0,0,0-10.616-8.81,1.892,1.892,0,0,1,1.69-3.385,35.487,35.487,0,0,1,12.072,10.1,1.891,1.891,0,0,1-1.571,2.94Zm0,0" transform="translate(3.911 22.349)" fill="#804537" stroke="#000" stroke-width="3"/>
    <path id="Path_25" data-name="Path 25" d="M260.907,180.542a1.891,1.891,0,0,1-1.346-.567A45.2,45.2,0,0,0,252.3,173.9a1.891,1.891,0,1,1,2.079-3.156,49.055,49.055,0,0,1,7.871,6.579,1.891,1.891,0,0,1-1.346,3.214Zm0,0" transform="translate(-36.63 45.177)" fill="#804537" stroke="#000" stroke-width="3"/>
    <path id="Path_26" data-name="Path 26" d="M312.829,182.238c-13.234,0-26.469,13.234-26.469,35.921h41.594c0-18.906-3.782-35.921-15.125-35.921Zm0,0" transform="translate(-63.973 35.919)" fill="#cb8252" stroke="#000" stroke-width="3"/>
  </g>
</svg>
