<svg xmlns="http://www.w3.org/2000/svg" width="93.783" height="95.457" viewBox="0 0 93.783 95.457">
  <g id="tea-cup" transform="translate(-3.586 1)">
    <g id="Group_2" data-name="Group 2" transform="translate(4.587 0)">
      <path id="Path_27" data-name="Path 27" d="M25.241,276.782H65.508c17.94-7.344,20.5-25.429,20.651-42.482a1.7,1.7,0,0,0-1.7-1.71H6.294a1.7,1.7,0,0,0-1.7,1.71c.146,17.053,2.711,35.137,20.651,42.482Z" transform="translate(-4.59 -190.124)" fill="#ffd15c" stroke="#000" stroke-width="2"/>
      <path id="Path_28" data-name="Path 28" d="M205.138,30.594a1.691,1.691,0,0,1-1.21-.508c-2.624-2.663-3.931-5.432-3.887-8.233.043-2.724,1.363-5.344,3.925-7.786,1.915-1.783,2.891-3.605,2.911-5.425.024-1.88-.96-3.806-2.927-5.724A1.7,1.7,0,0,1,206.327.483c2.655,2.6,3.984,5.354,3.95,8.2-.032,2.787-1.372,5.432-3.981,7.858-1.863,1.776-2.828,3.588-2.857,5.369-.029,1.853.95,3.8,2.91,5.794a1.7,1.7,0,0,1-1.21,2.891" transform="translate(-164.354 0)" fill="#ccd0d2" stroke="#000" stroke-width="2"/>
      <path id="Path_29" data-name="Path 29" d="M307.32,30.595a1.691,1.691,0,0,1-1.21-.508c-2.624-2.663-3.931-5.432-3.887-8.233.043-2.724,1.363-5.344,3.925-7.786,1.929-1.795,2.91-3.625,2.932-5.456.022-1.873-.955-3.789-2.907-5.694A1.7,1.7,0,0,1,308.548.484c2.643,2.582,3.965,5.33,3.931,8.17-.032,2.793-1.378,5.448-4,7.886-1.863,1.776-2.828,3.588-2.857,5.369-.029,1.853.95,3.8,2.91,5.794a1.7,1.7,0,0,1-1.21,2.891" transform="translate(-247.88 -0.001)" fill="#ccd0d2" stroke="#000" stroke-width="2"/>
      <path id="Path_30" data-name="Path 30" d="M111.829,30.595a1.691,1.691,0,0,1-1.21-.508c-2.624-2.663-3.931-5.432-3.887-8.233.043-2.724,1.363-5.344,3.925-7.786,1.929-1.795,2.91-3.625,2.932-5.456.022-1.873-.955-3.789-2.907-5.694A1.7,1.7,0,0,1,113.057.484c2.643,2.582,3.965,5.33,3.931,8.17-.032,2.793-1.378,5.448-4,7.886-1.863,1.776-2.828,3.588-2.857,5.369-.029,1.853.95,3.8,2.91,5.794a1.7,1.7,0,0,1-1.21,2.891" transform="translate(-88.082 -0.001)" fill="#ccd0d2" stroke="#000" stroke-width="2"/>
    </g>
    <path id="Path_31" data-name="Path 31" d="M65.577,334.251a1.83,1.83,0,0,1-.286-.024C51.8,331.94,44.559,324.177,41.807,309.06a1.7,1.7,0,0,1,3.345-.608c2.49,13.677,8.684,20.383,20.709,22.424a1.7,1.7,0,0,1-.284,3.375" transform="translate(-30.403 -250.992)" fill="#a1abaf" stroke="#000" stroke-width="2"/>
    <g id="Group_3" data-name="Group 3" transform="translate(64.046 40.801)">
      <path id="Path_32" data-name="Path 32" d="M350.645,237.031a1.7,1.7,0,0,1-1.7-1.7V225.168a1.7,1.7,0,1,1,3.4,0v10.164a1.7,1.7,0,0,1-1.7,1.7" transform="translate(-345.531 -223.468)" fill="#cc4b4c" stroke="#000" stroke-width="2"/>
      <path id="Path_33" data-name="Path 33" d="M340.445,287.044h-10.2v-13.6l5.114-3.433,5.1,3.433Z" transform="translate(-330.247 -261.515)" fill="#cc4b4c" stroke="#000" stroke-width="2"/>
    </g>
    <g id="Group_4" data-name="Group 4" transform="translate(4.586 45.876)">
      <path id="Path_34" data-name="Path 34" d="M418.086,251.263c-.2,10.88-1.565,22.012-7.4,30.387a20.371,20.371,0,0,0,17.636-20.189V257.09a5.827,5.827,0,0,0-5.827-5.827Z" transform="translate(-336.54 -251.263)" fill="#a1abaf" stroke="#000" stroke-width="2"/>
      <path id="Path_35" data-name="Path 35" d="M30.081,481.426H7.985a3.4,3.4,0,0,1-3.4-3.4h0a3.4,3.4,0,0,1,3.4-3.4H79.372a3.4,3.4,0,0,1,3.4,3.4h0a3.4,3.4,0,0,1-3.4,3.4h-20.4l-5.1-1.7H35.18Z" transform="translate(-4.586 -433.845)" fill="#a1abaf" stroke="#000" stroke-width="2"/>
    </g>
  </g>
</svg>
