<svg xmlns="http://www.w3.org/2000/svg" width="87.859" height="96.915" viewBox="0 0 87.859 96.915">
  <g id="toast" transform="translate(-0.499)">
    <path id="Path_36" data-name="Path 36" d="M288.949,183.894c2.542,14.412-2.91,27.421-12.175,29.056s-18.836-8.726-21.378-23.138a47.314,47.314,0,0,1-.682-7.517l33.411-2.1c.33,1.229.6,2.447.824,3.7Zm0,0" transform="translate(-206.095 -146.087)" fill="#f3705a"/>
    <path id="Path_37" data-name="Path 37" d="M288.08,118.47l-33.411,2.1c-.058-3.331.127-7.035.4-11.656l27.539-4.855a106.8,106.8,0,0,1,5.47,14.412Zm0,0" transform="translate(-206.05 -84.361)" fill="#f2f2fc"/>
    <path id="Path_38" data-name="Path 38" d="M66.938,108.914c.274,4.621.46,8.325.4,11.656l-33.411-2.1A106.828,106.828,0,0,1,39.4,104.059Zm0,0" transform="translate(-27.102 -84.362)" fill="#f2f2fc"/>
    <path id="Path_39" data-name="Path 39" d="M27.731,180.195l33.411,2.1a47.226,47.226,0,0,1-.682,7.517c-2.542,14.412-12.112,24.771-21.378,23.138s-14.716-14.643-12.174-29.056c.22-1.251.494-2.47.823-3.7Zm0,0" transform="translate(-20.904 -146.086)" fill="#f3705a"/>
    <path id="Path_40" data-name="Path 40" d="M391.224,216.4a1.893,1.893,0,1,0,2.192,1.535A1.894,1.894,0,0,0,391.224,216.4Zm0,0" transform="translate(-315.497 -175.416)"/>
    <path id="Path_41" data-name="Path 41" d="M59.254,218.6a1.892,1.892,0,1,0-2.192,1.535,1.893,1.893,0,0,0,2.192-1.535Zm0,0" transform="translate(-44.588 -175.417)"/>
    <path id="Path_42" data-name="Path 42" d="M226.364,9.464V1.893a1.893,1.893,0,0,0-3.786,0V9.464a1.893,1.893,0,0,0,3.786,0Zm0,0" transform="translate(-180.042)"/>
    <path id="Path_43" data-name="Path 43" d="M297.226,18.875l5.355-5.355a1.893,1.893,0,0,0-2.677-2.677L294.549,16.2a1.893,1.893,0,0,0,2.677,2.677Zm0,0" transform="translate(-237.941 -8.341)"/>
    <path id="Path_44" data-name="Path 44" d="M131.453,18.875a1.894,1.894,0,0,0,0-2.677L126.1,10.844a1.893,1.893,0,0,0-2.677,2.677l5.355,5.355a1.893,1.893,0,0,0,2.677,0Zm0,0" transform="translate(-99.205 -8.341)"/>
    <path id="Path_45" data-name="Path 45" d="M245.057,100.694c-.386,6.5-.832,13.174.305,19.614,1.292,7.323,4.361,13.908,8.641,18.541,3.824,4.139,8.237,6.333,12.636,6.333.135,0,.269-.005.4-.009l3.971,22.593-9.322,1.644a1.893,1.893,0,0,0,.657,3.729l22.37-3.945a1.893,1.893,0,0,0-.658-3.728l-9.319,1.643-3.97-22.592c4.307-1.419,7.848-5.047,10.093-10.4,2.438-5.819,3.069-13.056,1.778-20.378-1.114-6.342-3.661-12.161-6.421-18.535a1.893,1.893,0,0,0-2.066-1.112l-27.539,4.855a1.892,1.892,0,0,0-1.56,1.752Zm32.316,31.955c-2.042,4.874-5.273,7.929-9.1,8.6s-7.906-1.092-11.492-4.972c-3.794-4.107-6.526-10.013-7.693-16.631a42.878,42.878,0,0,1-.592-5.414l30-1.885c.158.684.3,1.36.416,2.039,1.167,6.618.62,13.1-1.542,18.259Zm-4.033-34.574c1.732,4.024,3.118,7.376,4.13,10.548l-29.038,1.825c.024-2.5.155-5.222.316-8.037Zm0,0" transform="translate(-197.926 -76.254)"/>
    <path id="Path_46" data-name="Path 46" d="M371.652,256.254a1.893,1.893,0,0,0-2.239,1.467c-.63,3.024-1.861,5.591-3.293,6.865a1.893,1.893,0,1,0,2.517,2.827c2.078-1.849,3.67-5.017,4.483-8.921a1.893,1.893,0,0,0-1.468-2.239Zm0,0" transform="translate(-295.899 -207.716)"/>
    <path id="Path_47" data-name="Path 47" d="M2.721,165.465a1.893,1.893,0,1,0-.657,3.728c23.76,4.179,22.385,3.974,22.7,3.974a1.893,1.893,0,0,0,.326-3.758l-9.322-1.644,3.971-22.594c.135,0,.269.009.4.009,4.4,0,8.811-2.193,12.635-6.332,4.281-4.634,7.35-11.218,8.641-18.541,1.117-6.329.711-12.789.306-19.614a1.893,1.893,0,0,0-1.561-1.752L12.626,94.085A1.894,1.894,0,0,0,10.561,95.2c-2.748,6.347-5.31,12.207-6.42,18.535-1.292,7.323-.66,14.56,1.778,20.379,2.246,5.358,5.786,8.986,10.093,10.4l-3.97,22.592ZM13.442,98.073l24.593,4.336c.161,2.815.292,5.537.316,8.037L9.312,108.621c1.013-3.172,2.4-6.523,4.13-10.548ZM9.409,132.648c-2.161-5.157-2.708-11.642-1.541-18.26.119-.678.259-1.354.416-2.038l30,1.885a42.739,42.739,0,0,1-.592,5.414c-1.168,6.618-3.9,12.524-7.693,16.631-3.585,3.88-7.666,5.646-11.491,4.972s-7.056-3.73-9.1-8.6Zm0,0" transform="translate(0 -76.252)"/>
    <path id="Path_48" data-name="Path 48" d="M66.323,267.258a1.893,1.893,0,0,0-.155-2.672c-1.432-1.275-2.664-3.841-3.293-6.865a1.893,1.893,0,0,0-3.707.772c.813,3.9,2.405,7.072,4.483,8.921a1.892,1.892,0,0,0,2.671-.155Zm0,0" transform="translate(-47.531 -207.715)"/>
  </g>
</svg>
