<svg xmlns="http://www.w3.org/2000/svg" width="86.5" height="79.967" viewBox="0 0 86.5 79.967">
  <g id="watch" transform="translate(0 -1.775)">
    <g id="Layer_1_65_" transform="translate(0 1.775)">
      <g id="Group_5" data-name="Group 5">
        <path id="Path_51" data-name="Path 51" d="M86.327,35.537a1.82,1.82,0,0,0-1.649-1.047H79.291a39.954,39.954,0,1,0-4.678,27.271,3.635,3.635,0,0,0-6.292-3.642,32.747,32.747,0,1,1,3.534-23.627H66.51a1.817,1.817,0,0,0-1.4,2.981l9.088,10.9a1.818,1.818,0,0,0,2.792,0l9.088-10.9A1.817,1.817,0,0,0,86.327,35.537Z" transform="translate(0 -1.775)" fill="#f3705a"/>
        <path id="Path_52" data-name="Path 52" d="M24.63,6.713A3.634,3.634,0,0,0,21,10.348V32.4a6.354,6.354,0,0,0,3.637,11.571,6.282,6.282,0,0,0,2.683-.615l12.643,7.3a3.6,3.6,0,0,0,1.815.49,3.634,3.634,0,0,0,1.818-6.782L30.936,37.056a6.331,6.331,0,0,0-2.667-4.649V10.348A3.642,3.642,0,0,0,24.63,6.713Zm0,33.622a2.725,2.725,0,1,1,2.726-2.724A2.729,2.729,0,0,1,24.63,40.335Z" transform="translate(15.354 2.375)" fill="#f3705a"/>
      </g>
    </g>
  </g>
</svg>
